<svg id="Laag_1" data-name="Laag 1" xmlns="http://www.w3.org/2000/svg" width="50" height="19.54" viewBox="0 0 50 19.54"><defs><style>.cls-1{fill:#222a55;fill-rule:evenodd;}</style></defs><title>Nederlandse_Spoorwegen</title><path class="cls-1" d="M25.17,1.66A5.35,5.35,0,0,0,21.3,0H9.82L0,9.71l9.82,9.83h5.52L7.51,11.7H18a1.69,1.69,0,0,1,1.22.44l5.62,5.74a5.39,5.39,0,0,0,3.87,1.66H40.29L50,9.71,40.29,0H34.66l7.83,7.84H32A2.09,2.09,0,0,1,30.9,7.4L25.17,1.66ZM21.3,3.86a1.57,1.57,0,0,1,1.11.55L28,10a5.25,5.25,0,0,0,4,1.66H42.49l-3.86,3.86H28.81a1.54,1.54,0,0,1-1.22-.44L22,9.49a5.24,5.24,0,0,0-4-1.65H7.51l3.86-4Z"/></svg>