<?xml version="1.0" encoding="utf-8"?>
<!-- Generator: Adobe Illustrator 22.0.1, SVG Export Plug-In . SVG Version: 6.00 Build 0)  -->
<svg version="1.1" id="Laag_1" xmlns="http://www.w3.org/2000/svg" xmlns:xlink="http://www.w3.org/1999/xlink" x="0px" y="0px"
	 viewBox="0 0 14.5 17.1" style="enable-background:new 0 0 14.5 17.1;" xml:space="preserve">
<style type="text/css">
	.st0{fill:#FFFFFF;}
</style>
<title>bookmark-off</title>
<g id="Capa_1">
	<path class="st0" d="M13.3,1l0.2,0l0.1,0.1l0,0v14.6c0,0,0,0.1,0,0.1l-0.2,0.2l0,0c-0.1-0.1-0.2-0.1-0.3-0.2l-5-4.7l-0.7-0.7
		l-0.7,0.7l-5,4.8l-0.1,0.1l0,0H1.3c-0.1,0-0.2,0-0.3,0C1,16,1,16,1,15.9V1.3c0,0,0-0.1,0-0.1C1.1,1.1,1.2,1.1,1.3,1H13.3 M13.2,0
		H1.3C1.1,0,1,0,0.8,0.1C0.6,0.2,0.4,0.4,0.2,0.6C0.1,0.8,0,1.1,0,1.3v14.6c0,0.2,0.1,0.5,0.2,0.7c0.1,0.2,0.3,0.4,0.6,0.5
		c0.1,0,0.1,0,0.2,0c0.1,0,0.2,0,0.3,0c0.4,0,0.7-0.1,0.9-0.4l5-4.8l5,4.8c0.3,0.2,0.6,0.4,0.9,0.4c0.2,0,0.4,0,0.5-0.1
		c0.2-0.1,0.4-0.3,0.6-0.5c0.1-0.2,0.2-0.5,0.2-0.7V1.3c0-0.3,0-0.5-0.2-0.7c-0.1-0.2-0.3-0.4-0.6-0.5C13.5,0,13.3,0,13.2,0L13.2,0z
		"/>
</g>
</svg>
