<svg id="Layer_1" data-name="Layer 1" xmlns="http://www.w3.org/2000/svg" width="35" height="35" viewBox="0 0 35 35">
  <title>bookmarks</title>
  <g id="Capa_1" data-name="Capa 1">
    <path d="M24.32,9.68l.18.05.07.15h0V25.59a.24.24,0,0,1,0,.12l-.22.21h0a2,2,0,0,1-.35-.21l-5.37-5.08-.75-.71-.74.71-5.37,5.16-.09.07h-.47a.44.44,0,0,1-.06-.16V10a.24.24,0,0,1,0-.12l.27-.2h12.9M24.26,8.6H11.49a1.09,1.09,0,0,0-.54.11,2.89,2.89,0,0,0-.66.54,1.54,1.54,0,0,0-.21.75V25.7a1.51,1.51,0,0,0,.21.75A1.11,1.11,0,0,0,11,27h.54a1,1,0,0,0,1-.43l5.38-5.16,5.38,5.16a2,2,0,0,0,1,.43.78.78,0,0,0,.54-.11,2.61,2.61,0,0,0,.66-.53,1.55,1.55,0,0,0,.21-.76V10a.9.9,0,0,0-.21-.75,1.08,1.08,0,0,0-.66-.54.84.84,0,0,0-.54-.11Z" style="fill: #003082"/>
  </g>
</svg>
