<?xml version="1.0" encoding="utf-8"?>
<!-- Generator: Adobe Illustrator 22.0.1, SVG Export Plug-In . SVG Version: 6.00 Build 0)  -->
<svg version="1.1" id="Laag_1" xmlns="http://www.w3.org/2000/svg" xmlns:xlink="http://www.w3.org/1999/xlink" x="0px" y="0px"
	 viewBox="0 0 14.5 17.8" style="enable-background:new 0 0 14.5 17.8;" xml:space="preserve">
<style type="text/css">
	.st0{fill:#FFFFFF;}
	.st1{fill:none;stroke:#FFFFFF;stroke-linejoin:round;stroke-miterlimit:10;}
	.st2{fill:none;stroke:#FFFFFF;stroke-linecap:round;stroke-linejoin:round;stroke-miterlimit:10;}
</style>
<g>
	<path class="st0" d="M12.4,3.1c0.6,0,1.1,0.5,1.1,1.1S13,5.4,12.4,5.4H2.1C1.5,5.4,1,4.9,1,4.2s0.5-1.1,1.1-1.1H12.4 M12.4,2.1H2.1
		C1,2.1,0,3,0,4.2s1,2.1,2.1,2.1h10.2c1.2,0,2.1-1,2.1-2.1S13.5,2.1,12.4,2.1L12.4,2.1z"/>
</g>
<path class="st1" d="M5.4,2.4c0-1,0.8-1.8,1.8-1.8s1.8,0.8,1.8,1.8"/>
<g>
	<path class="st0" d="M12.3,6.3v9.5c0,0.6-0.4,1-1,1h-8c-0.6,0-1-0.4-1-1V6.3H12.3 M12.3,5.3h-10c-0.6,0-1,0.4-1,1v9.5
		c0,1.1,0.9,2,2,2h8c1.1,0,2-0.9,2-2V6.3C13.3,5.8,12.8,5.3,12.3,5.3L12.3,5.3z"/>
</g>
<line class="st2" x1="4.7" y1="9.7" x2="4.7" y2="15.2"/>
<line class="st2" x1="7.3" y1="9.7" x2="7.3" y2="15.2"/>
<line class="st2" x1="9.8" y1="9.7" x2="9.8" y2="15.2"/>
</svg>
