<?xml version="1.0" encoding="utf-8"?>
<!-- Generator: Adobe Illustrator 22.0.1, SVG Export Plug-In . SVG Version: 6.00 Build 0)  -->
<svg version="1.1" id="Laag_1" xmlns="http://www.w3.org/2000/svg" xmlns:xlink="http://www.w3.org/1999/xlink" x="0px" y="0px"
	 viewBox="0 0 14.5 17.8" style="enable-background:new 0 0 14.5 17.8;" xml:space="preserve">
<style type="text/css">
	.st0{fill:#FFFFFF;}
	.st1{fill:none;stroke:#FFFFFF;stroke-linejoin:round;stroke-miterlimit:10;}
</style>
<g>
	<path class="st0" d="M11.6,7.9L2.1,4.1C1,3.7,0.5,2.4,0.9,1.3l0,0c0.4-1.1,1.7-1.6,2.8-1.2L13.2,4c1.1,0.4,1.6,1.7,1.2,2.8l0,0
		C13.9,7.9,12.7,8.4,11.6,7.9z"/>
</g>
<path class="st1" d="M6.6,1.6C7,0.7,8.1,0.2,9,0.6s1.4,1.4,1,2.4"/>
<g>
	<path class="st0" d="M13.1,6.8c-0.7,0.4-1.4,0-2.2-0.3L7.7,5.3H2.3c-0.6,0-1,0.4-1,1v9.5c0,1.1,0.9,2,2,2h8c1.1,0,2-0.9,2-2V7.6
		L13.1,6.8z M5.2,15.2c0,0.3-0.2,0.5-0.5,0.5s-0.5-0.2-0.5-0.5V9.7c0-0.3,0.2-0.5,0.5-0.5s0.5,0.2,0.5,0.5V15.2z M7.8,15.2
		c0,0.3-0.2,0.5-0.5,0.5s-0.5-0.2-0.5-0.5V9.7c0-0.3,0.2-0.5,0.5-0.5s0.5,0.2,0.5,0.5V15.2z M10.3,15.2c0,0.3-0.2,0.5-0.5,0.5
		s-0.5-0.2-0.5-0.5V9.7c0-0.3,0.2-0.5,0.5-0.5s0.5,0.2,0.5,0.5V15.2z"/>
</g>
</svg>
