<?xml version="1.0" encoding="utf-8"?>
<!-- Generator: Adobe Illustrator 22.0.1, SVG Export Plug-In . SVG Version: 6.00 Build 0)  -->
<svg version="1.1" xmlns="http://www.w3.org/2000/svg" xmlns:xlink="http://www.w3.org/1999/xlink" x="0px" y="0px"
	 viewBox="0 0 14.5 17.8" style="enable-background:new 0 0 14.5 17.8;" xml:space="preserve">
<style type="text/css">
	.st0{display:none;}
	.st1{fill:#FFFFFF;}
</style>
<g id="Laag_2" class="st0">
	
		<image style="display:inline;overflow:visible;" width="482" height="575" xlink:href="FDDA8CAC.jpg"  transform="matrix(3.008299e-02 0 0 3.008299e-02 0 0.5023)">
	</image>
</g>
<g id="Laag_1">
	<g>
		<path class="st1" d="M5.4,12.8c-0.1,0-0.3-0.1-0.4-0.2c-0.2-0.2-0.3-0.6,0-0.9L12.1,5c0.2-0.2,0.6-0.3,0.9,0
			c0.2,0.2,0.3,0.6,0,0.9l-7.2,6.7C5.7,12.7,5.5,12.8,5.4,12.8z"/>
	</g>
	<g>
		<path class="st1" d="M5.3,12.8c-0.2,0-0.3-0.1-0.4-0.2L1.6,8.8c-0.2-0.2-0.2-0.6,0-0.9c0.2-0.2,0.6-0.2,0.9,0l3.3,3.8
			c0.2,0.2,0.2,0.6,0,0.9C5.5,12.7,5.4,12.8,5.3,12.8z"/>
	</g>
	<path class="st1" d="M13.9,14.3c-0.3,0-0.6,0.3-0.6,0.6l0,0v0.5c0,0.7-0.5,1.2-1.2,1.2H2.4c-0.7,0-1.2-0.5-1.2-1.2v-0.5l0,0
		c0-0.3-0.3-0.6-0.6-0.6S0,14.6,0,14.9V15l0,0v0.3c0,1.3,1.1,2.4,2.4,2.4h9.7c1.3,0,2.4-1.1,2.4-2.4V15l0,0v-0.2
		C14.5,14.5,14.2,14.3,13.9,14.3z"/>
</g>
</svg>
