<?xml version="1.0" encoding="utf-8"?>
<!-- Generator: Adobe Illustrator 22.0.1, SVG Export Plug-In . SVG Version: 6.00 Build 0)  -->
<svg version="1.1" id="Laag_1" xmlns="http://www.w3.org/2000/svg" xmlns:xlink="http://www.w3.org/1999/xlink" x="0px" y="0px"
	 viewBox="0 0 14.5 17.8" style="enable-background:new 0 0 14.5 17.8;" xml:space="preserve">
<style type="text/css">
	.st0{fill:#FFFFFF;}
</style>
<g>
	<path class="st0" d="M7.3,14.2c-0.3,0-0.6-0.3-0.6-0.6V0.7c0-0.3,0.3-0.6,0.6-0.6s0.6,0.3,0.6,0.6v12.9C7.9,13.9,7.6,14.2,7.3,14.2
		z"/>
</g>
<g>
	<path class="st0" d="M7.3,14.2c-0.1,0-0.3-0.1-0.4-0.2c-0.2-0.2-0.3-0.6,0-0.9l4.7-5c0.2-0.2,0.6-0.3,0.9,0c0.2,0.2,0.3,0.6,0,0.9
		l-4.7,5C7.6,14.1,7.4,14.2,7.3,14.2z"/>
</g>
<g>
	<path class="st0" d="M7.3,14.2c-0.2,0-0.3-0.1-0.4-0.2L2.1,9c-0.2-0.2-0.2-0.6,0-0.9c0.2-0.2,0.6-0.2,0.9,0l4.7,5
		c0.2,0.2,0.2,0.6,0,0.9C7.5,14.1,7.4,14.2,7.3,14.2z"/>
</g>
<path class="st0" d="M13.9,14.3c-0.3,0-0.6,0.3-0.6,0.6h0v0.5c0,0.7-0.5,1.2-1.2,1.2H2.4c-0.7,0-1.2-0.5-1.2-1.2v-0.5h0
	c0-0.3-0.3-0.6-0.6-0.6c-0.3,0-0.6,0.3-0.6,0.6V15c0,0,0,0,0,0v0.3c0,1.3,1.1,2.4,2.4,2.4h9.7c1.3,0,2.4-1.1,2.4-2.4v-0.3
	c0,0,0,0,0,0v-0.2C14.5,14.5,14.2,14.3,13.9,14.3z"/>
</svg>
