<?xml version="1.0" encoding="utf-8"?>
<!-- Generator: Adobe Illustrator 22.0.1, SVG Export Plug-In . SVG Version: 6.00 Build 0)  -->
<svg version="1.1" id="Laag_1" xmlns="http://www.w3.org/2000/svg" xmlns:xlink="http://www.w3.org/1999/xlink" x="0px" y="0px"
	 viewBox="0 0 48.6 17.1" style="enable-background:new 0 0 48.6 17.1;" xml:space="preserve">
<style type="text/css">
	.st0{fill:#FFFFFF;}
	.st1{fill:#0079D3;}
</style>
<title>medium-story</title>
<path class="st0" d="M0,8.6c0,4.7,3.8,8.6,8.6,8.6s8.6-3.8,8.6-8.6S13.3,0,8.6,0C3.8,0,0,3.8,0,8.6C0,8.6,0,8.6,0,8.6z M8,9.6L8,9.6
	v-6C8,3.2,8.3,3,8.6,3c0.3,0,0.6,0.3,0.6,0.6v5.1l2.4-1.2c0.3-0.1,0.6,0,0.8,0.3c0,0,0,0,0,0c0.1,0.3,0,0.6-0.3,0.8c0,0,0,0,0,0
	l-3.3,1.6H8.3H8.3l0,0c-0.1,0-0.1-0.1-0.1-0.1l0,0L8.1,9.9l0,0L8,9.8l0,0V9.6z"/>
<path class="st1" d="M24.2,11.9c-1.9,0-3.4-1.5-3.4-3.4s1.5-3.4,3.4-3.4s3.4,1.5,3.4,3.4C27.6,10.4,26.1,11.9,24.2,11.9z"/>
<path class="st0" d="M24.2,5.7c1.6,0,2.9,1.3,2.9,2.9s-1.3,2.9-2.9,2.9s-2.9-1.3-2.9-2.9S22.6,5.7,24.2,5.7L24.2,5.7 M24.2,4.7
	c-2.1,0-3.9,1.7-3.9,3.9s1.7,3.9,3.9,3.9s3.9-1.7,3.9-3.9S26.4,4.7,24.2,4.7L24.2,4.7z"/>
<path class="st1" d="M34.5,11.9c-1.9,0-3.4-1.5-3.4-3.4s1.5-3.4,3.4-3.4c1.9,0,3.4,1.5,3.4,3.4C37.8,10.4,36.3,11.9,34.5,11.9z"/>
<path class="st0" d="M34.5,5.7c1.6,0,2.9,1.3,2.9,2.9s-1.3,2.9-2.9,2.9c-1.6,0-2.9-1.3-2.9-2.9v0C31.6,7,32.9,5.7,34.5,5.7
	 M34.5,4.7c-2.1,0-3.9,1.7-3.9,3.9s1.7,3.9,3.9,3.9c2.1,0,3.9-1.7,3.9-3.9S36.6,4.7,34.5,4.7L34.5,4.7z"/>
<path class="st0" d="M44.7,11.9c-1.9,0-3.4-1.5-3.4-3.4s1.5-3.4,3.4-3.4c1.9,0,3.4,1.5,3.4,3.4C48.1,10.4,46.6,11.9,44.7,11.9z"/>
<path class="st0" d="M44.7,5.7c1.6,0,2.9,1.3,2.9,2.9s-1.3,2.9-2.9,2.9c-1.6,0-2.9-1.3-2.9-2.9S43.1,5.7,44.7,5.7L44.7,5.7
	 M44.7,4.7c-2.1,0-3.9,1.7-3.9,3.9s1.7,3.9,3.9,3.9c2.1,0,3.9-1.7,3.9-3.9S46.8,4.7,44.7,4.7L44.7,4.7z"/>
</svg>
