<?xml version="1.0" encoding="utf-8"?>
<!-- Generator: Adobe Illustrator 22.0.1, SVG Export Plug-In . SVG Version: 6.00 Build 0)  -->
<svg version="1.1" id="Capa_1" xmlns="http://www.w3.org/2000/svg" xmlns:xlink="http://www.w3.org/1999/xlink" x="0px" y="0px"
	 viewBox="0 0 512 512" style="enable-background:new 0 0 512 512;" xml:space="preserve">
<style type="text/css">
	.st0{fill:#896C50;}
</style>
<g>
	<g>
		<path class="st0" d="M499.5,291.6c-5.2-1.3-10.5,0-15.1,3.3c-17,14.4-36.7,26.2-58.3,34c-20.3,7.9-42.6,11.8-66.1,11.8
			c-53,0-101.5-21.6-136.2-56.3s-56.3-83.1-56.3-136.2c0-22.3,3.9-43.9,10.5-63.5c7.2-21,17.7-39.9,31.4-56.3
			c5.9-7.2,4.6-17.7-2.6-23.6c-4.6-3.3-9.8-4.6-15.1-3.3C136.2,16.6,87.7,50,53,94.5C19.6,138.4,0,192.7,0,251.7
			C0,323,28.8,387.8,75.9,435s111.3,75.9,183.3,75.9c60.2,0,115.9-21,160.4-55.7c45.2-35.4,77.9-85.8,91.7-143.4
			C513.9,302.7,508.7,293.6,499.5,291.6z"/>
	</g>
</g>
</svg>
