<?xml version="1.0" encoding="utf-8"?>
<!-- Generator: Adobe Illustrator 22.0.1, SVG Export Plug-In . SVG Version: 6.00 Build 0)  -->
<svg version="1.1" id="Capa_1" xmlns="http://www.w3.org/2000/svg" xmlns:xlink="http://www.w3.org/1999/xlink" x="0px" y="0px"
	 viewBox="0 0 510 510" style="enable-background:new 0 0 510 510;" xml:space="preserve">
<style type="text/css">
	.st0{fill:#D2CCBB;}
</style>
<title>sun</title>
<path class="st0" d="M255,127.2c-70.4,0-127.7,57.3-127.7,127.8c0,70.5,57.2,127.7,127.7,127.7c70.4,0,127.7-57.3,127.7-127.8
	C382.6,184.4,325.5,127.3,255,127.2z"/>
<path class="st0" d="M255,89.7c-13.8,0-24.9-11.1-24.9-24.9V24.9C230.1,11.1,241.2,0,255,0c13.8,0,24.9,11.1,24.9,24.9c0,0,0,0,0,0
	v39.9C279.8,78.5,268.7,89.6,255,89.7z"/>
<path class="st0" d="M255,420.3c-13.8,0-24.9,11.1-24.9,24.9v39.9c0,13.8,11.1,24.9,24.9,24.9c13.8,0,24.9-11.1,24.9-24.9
	c0,0,0,0,0,0v-39.9C279.9,431.4,268.8,420.3,255,420.3C255,420.3,255,420.3,255,420.3z"/>
<path class="st0" d="M371.8,138.1c-9.7-9.7-9.7-25.5,0-35.2L400,74.7c9.7-9.7,25.5-9.7,35.2,0s9.7,25.5,0,35.2l0,0L407,138.1
	C397.3,147.8,381.5,147.8,371.8,138.1z"/>
<path class="st0" d="M138.1,371.9c-9.7-9.7-25.5-9.7-35.2,0l-28.2,28.2c-9.7,9.7-9.7,25.5,0,35.2s25.5,9.7,35.2,0l0,0l28.2-28.2
	C144.5,398.4,140.4,383.6,138.1,371.9z"/>
<path class="st0" d="M420.3,255c0-13.8,11.1-24.9,24.9-24.9h39.9c13.8,0,24.9,11.2,24.9,24.9c0,13.7-11.1,24.9-24.9,24.9h-39.9
	C431.4,279.9,420.3,268.8,420.3,255C420.3,255,420.3,255,420.3,255z"/>
<path class="st0" d="M89.7,255c0-13.8-11.1-24.9-24.9-24.9H24.9C11.1,230.1,0,241.2,0,255c0,13.8,11.1,24.9,24.9,24.9c0,0,0,0,0,0
	h39.9C78.5,279.8,89.6,268.7,89.7,255z"/>
<path class="st0" d="M371.8,371.9c9.7-9.7,25.5-9.7,35.2,0l28.2,28.2c9.7,9.7,9.7,25.5,0,35.2c-9.7,9.7-25.5,9.7-35.2,0l-28.2-28.2
	C362.1,397.4,362.1,381.6,371.8,371.9z"/>
<path class="st0" d="M138.1,138.1c9.7-9.7,9.7-25.5,0-35.2l-28.2-28.2c-9.7-9.7-25.5-9.7-35.2,0s-9.7,25.5,0,35.2l28.2,28.2
	C112.6,147.8,128.4,147.8,138.1,138.1z"/>
</svg>
